# xmcd CD database file
#
# Track frame offsets:
#	150
#	28004
#	57558
#	85155
#	109680
#	130997
#	159270
#	188348
#	216264
#	247795
#	275976
#
# Disc length: 3790 seconds
#
# Revision: 0
# Processed by: cddbd v1.5.1PL0 Copyright (c) Steve Scherf et al.
# Submitted via: CDex 1.51
#
DISCID=940ecc0b
DTITLE=Jim Mullen - Burns
DYEAR=2000
DGENRE=Jazz
TTITLE0=Count the lawin'
TTITLE1=Banks and braes
TTITLE2=Bonnie wee thing
TTITLE3=Comin' through the rye
TTITLE4=Willie Gray
TTITLE5=The lea rig
TTITLE6=Sweet afternoon
TTITLE7=For the sake o' somebody
TTITLE8=Lassie lie near me
TTITLE9=A man's a man
TTITLE10=Red, red nose
EXTD=YEAR: 2000
EXTT0=
EXTT1=
EXTT2=
EXTT3=
EXTT4=
EXTT5=
EXTT6=
EXTT7=
EXTT8=
EXTT9=
EXTT10=
PLAYORDER=
